<svg width="288" height="77" viewBox="0 0 288 77" fill="none" xmlns="http://www.w3.org/2000/svg">
<path d="M7.82598 52.0666C7.86864 53.2613 8.14598 54.2853 8.65798 55.1386C9.16998 55.9493 9.83131 56.6106 10.642 57.1226C11.4953 57.5919 12.434 57.9333 13.458 58.1466C14.5246 58.3599 15.6126 58.4666 16.722 58.4666C17.5753 58.4666 18.4713 58.4026 19.41 58.2746C20.3486 58.1466 21.202 57.9119 21.97 57.5706C22.7806 57.2293 23.442 56.7386 23.954 56.0986C24.466 55.4159 24.722 54.5626 24.722 53.5386C24.722 52.1306 24.1886 51.0639 23.122 50.3386C22.0553 49.6133 20.7113 49.0373 19.09 48.6106C17.5113 48.1413 15.7833 47.7359 13.906 47.3946C12.0286 47.0106 10.2793 46.4986 8.65798 45.8586C7.07931 45.1759 5.75664 44.2373 4.68998 43.0426C3.62331 41.8479 3.08998 40.1839 3.08998 38.0506C3.08998 36.3866 3.45264 34.9573 4.17798 33.7626C4.94598 32.5679 5.90598 31.6079 7.05798 30.8826C8.25264 30.1146 9.57531 29.5599 11.026 29.2186C12.5193 28.8346 13.9913 28.6426 15.442 28.6426C17.3193 28.6426 19.0473 28.8133 20.626 29.1546C22.2046 29.4533 23.5913 30.0079 24.786 30.8186C26.0233 31.5866 27.0046 32.6533 27.73 34.0186C28.4553 35.3413 28.882 37.0053 29.01 39.0106H23.57C23.4846 37.9439 23.2073 37.0693 22.738 36.3866C22.2686 35.6613 21.6713 35.0853 20.946 34.6586C20.2206 34.2319 19.41 33.9333 18.514 33.7626C17.6606 33.5493 16.786 33.4426 15.89 33.4426C15.0793 33.4426 14.2473 33.5066 13.394 33.6346C12.5833 33.7626 11.8366 33.9973 11.154 34.3386C10.4713 34.6373 9.91664 35.0639 9.48998 35.6186C9.06331 36.1306 8.84998 36.8133 8.84998 37.6666C8.84998 38.6053 9.16998 39.3946 9.80998 40.0346C10.4926 40.6319 11.346 41.1439 12.37 41.5706C13.394 41.9546 14.546 42.2959 15.826 42.5946C17.106 42.8506 18.386 43.1279 19.666 43.4266C21.0313 43.7253 22.354 44.0879 23.634 44.5146C24.9566 44.9413 26.1086 45.5173 27.09 46.2426C28.114 46.9253 28.9246 47.7999 29.522 48.8666C30.162 49.9333 30.482 51.2559 30.482 52.8346C30.482 54.8399 30.0553 56.5039 29.202 57.8266C28.3913 59.1493 27.3033 60.2159 25.938 61.0266C24.6153 61.8373 23.1006 62.3919 21.394 62.6906C19.73 63.0319 18.066 63.2026 16.402 63.2026C14.5673 63.2026 12.818 63.0106 11.154 62.6266C9.48998 62.2426 8.01798 61.6239 6.73798 60.7706C5.45798 59.8746 4.43398 58.7226 3.66598 57.3146C2.89798 55.8639 2.47131 54.1146 2.38598 52.0666H7.82598ZM36.248 16.8026H41.688V34.2746H41.816C42.2426 33.2506 42.84 32.3973 43.608 31.7146C44.376 30.9893 45.2293 30.4133 46.168 29.9866C47.1493 29.5173 48.152 29.1759 49.176 28.9626C50.2426 28.7493 51.2666 28.6426 52.248 28.6426C54.424 28.6426 56.2373 28.9413 57.688 29.5386C59.1386 30.1359 60.312 30.9679 61.208 32.0346C62.104 33.1013 62.7226 34.3813 63.064 35.8746C63.448 37.3253 63.64 38.9466 63.64 40.7386V62.4986H58.2V40.0986C58.2 38.0506 57.6026 36.4293 56.408 35.2346C55.2133 34.0399 53.5706 33.4426 51.48 33.4426C49.816 33.4426 48.3653 33.6986 47.128 34.2106C45.9333 34.7226 44.9306 35.4479 44.12 36.3866C43.3093 37.3253 42.6906 38.4346 42.264 39.7146C41.88 40.9519 41.688 42.3173 41.688 43.8106V62.4986H36.248V16.8026ZM75.5285 45.9866C75.5285 47.9919 75.7845 49.7839 76.2965 51.3626C76.8511 52.8986 77.5978 54.1999 78.5365 55.2666C79.4751 56.2906 80.5631 57.0799 81.8005 57.6346C83.0805 58.1893 84.4245 58.4666 85.8325 58.4666C87.2405 58.4666 88.5631 58.1893 89.8005 57.6346C91.0805 57.0799 92.1898 56.2906 93.1285 55.2666C94.0671 54.1999 94.7925 52.8986 95.3045 51.3626C95.8591 49.7839 96.1365 47.9919 96.1365 45.9866C96.1365 43.9813 95.8591 42.2106 95.3045 40.6746C94.7925 39.0959 94.0671 37.7733 93.1285 36.7066C92.1898 35.6399 91.0805 34.8293 89.8005 34.2746C88.5631 33.7199 87.2405 33.4426 85.8325 33.4426C84.4245 33.4426 83.0805 33.7199 81.8005 34.2746C80.5631 34.8293 79.4751 35.6399 78.5365 36.7066C77.5978 37.7733 76.8511 39.0959 76.2965 40.6746C75.7845 42.2106 75.5285 43.9813 75.5285 45.9866ZM69.7685 45.9866C69.7685 43.5546 70.1098 41.2933 70.7925 39.2026C71.4751 37.0693 72.4991 35.2346 73.8645 33.6986C75.2298 32.1199 76.9151 30.8826 78.9205 29.9866C80.9258 29.0906 83.2298 28.6426 85.8325 28.6426C88.4778 28.6426 90.7818 29.0906 92.7445 29.9866C94.7498 30.8826 96.4351 32.1199 97.8005 33.6986C99.1658 35.2346 100.19 37.0693 100.872 39.2026C101.555 41.2933 101.896 43.5546 101.896 45.9866C101.896 48.4186 101.555 50.6799 100.872 52.7706C100.19 54.8613 99.1658 56.6959 97.8005 58.2746C96.4351 59.8106 94.7498 61.0266 92.7445 61.9226C90.7818 62.7759 88.4778 63.2026 85.8325 63.2026C83.2298 63.2026 80.9258 62.7759 78.9205 61.9226C76.9151 61.0266 75.2298 59.8106 73.8645 58.2746C72.4991 56.6959 71.4751 54.8613 70.7925 52.7706C70.1098 50.6799 69.7685 48.4186 69.7685 45.9866ZM107.868 29.4106H112.988V36.3866H113.116C114.439 33.6986 116.06 31.7146 117.98 30.4346C119.9 29.1546 122.332 28.5573 125.276 28.6426V34.4026C123.1 34.4026 121.244 34.7013 119.708 35.2986C118.172 35.8959 116.935 36.7706 115.996 37.9226C115.058 39.0746 114.375 40.4826 113.948 42.1466C113.522 43.7679 113.308 45.6453 113.308 47.7786V62.4986H107.868V29.4106ZM136.675 29.4106H143.267V34.2106H136.675V54.7546C136.675 55.3946 136.718 55.9066 136.803 56.2906C136.931 56.6746 137.144 56.9733 137.443 57.1866C137.742 57.3999 138.147 57.5493 138.659 57.6346C139.214 57.6773 139.918 57.6986 140.771 57.6986H143.267V62.4986H139.107C137.699 62.4986 136.483 62.4133 135.459 62.2426C134.478 62.0293 133.667 61.6666 133.027 61.1546C132.43 60.6426 131.982 59.9173 131.683 58.9786C131.384 58.0399 131.235 56.8026 131.235 55.2666V34.2106H125.603V29.4106H131.235V19.4906H136.675V29.4106ZM172.036 42.7866C171.951 41.5066 171.652 40.2906 171.14 39.1386C170.671 37.9866 170.01 37.0053 169.156 36.1946C168.346 35.3413 167.364 34.6799 166.212 34.2106C165.103 33.6986 163.866 33.4426 162.5 33.4426C161.092 33.4426 159.812 33.6986 158.66 34.2106C157.551 34.6799 156.591 35.3413 155.78 36.1946C154.97 37.0479 154.33 38.0506 153.86 39.2026C153.391 40.3119 153.114 41.5066 153.028 42.7866H172.036ZM177.284 52.0026C176.559 55.7146 174.959 58.5093 172.484 60.3866C170.01 62.2639 166.895 63.2026 163.14 63.2026C160.495 63.2026 158.191 62.7759 156.228 61.9226C154.308 61.0693 152.687 59.8746 151.364 58.3386C150.042 56.8026 149.039 54.9679 148.356 52.8346C147.716 50.7013 147.354 48.3759 147.268 45.8586C147.268 43.3413 147.652 41.0373 148.42 38.9466C149.188 36.8559 150.255 35.0426 151.62 33.5066C153.028 31.9706 154.671 30.7759 156.548 29.9226C158.468 29.0693 160.559 28.6426 162.82 28.6426C165.764 28.6426 168.196 29.2613 170.116 30.4986C172.079 31.6933 173.636 33.2293 174.788 35.1066C175.983 36.9839 176.794 39.0319 177.22 41.2506C177.69 43.4693 177.882 45.5813 177.796 47.5866H153.028C152.986 49.0373 153.156 50.4239 153.54 51.7466C153.924 53.0266 154.543 54.1786 155.396 55.2026C156.25 56.1839 157.338 56.9733 158.66 57.5706C159.983 58.1679 161.54 58.4666 163.332 58.4666C165.636 58.4666 167.514 57.9333 168.964 56.8666C170.458 55.7999 171.439 54.1786 171.908 52.0026H177.284ZM182.993 29.4106H188.113V36.3866H188.241C189.564 33.6986 191.185 31.7146 193.105 30.4346C195.025 29.1546 197.457 28.5573 200.401 28.6426V34.4026C198.225 34.4026 196.369 34.7013 194.833 35.2986C193.297 35.8959 192.06 36.7706 191.121 37.9226C190.183 39.0746 189.5 40.4826 189.073 42.1466C188.647 43.7679 188.433 45.6453 188.433 47.7786V62.4986H182.993V29.4106ZM204.248 29.4106H209.368V34.2746H209.496C211.971 30.5199 215.533 28.6426 220.184 28.6426C222.232 28.6426 224.088 29.0693 225.752 29.9226C227.416 30.7759 228.589 32.2266 229.272 34.2746C230.381 32.4826 231.832 31.0959 233.624 30.1146C235.459 29.1333 237.464 28.6426 239.64 28.6426C241.304 28.6426 242.797 28.8346 244.12 29.2186C245.485 29.5599 246.637 30.1146 247.576 30.8826C248.557 31.6506 249.304 32.6533 249.816 33.8906C250.371 35.0853 250.648 36.5359 250.648 38.2426V62.4986H245.208V40.8026C245.208 39.7786 245.123 38.8186 244.952 37.9226C244.781 37.0266 244.461 36.2586 243.992 35.6186C243.523 34.9359 242.861 34.4026 242.008 34.0186C241.197 33.6346 240.131 33.4426 238.808 33.4426C236.12 33.4426 234.008 34.2106 232.472 35.7466C230.936 37.2826 230.168 39.3306 230.168 41.8906V62.4986H224.728V40.8026C224.728 39.7359 224.621 38.7546 224.408 37.8586C224.237 36.9626 223.917 36.1946 223.448 35.5546C222.979 34.8719 222.339 34.3599 221.528 34.0186C220.76 33.6346 219.757 33.4426 218.52 33.4426C216.941 33.4426 215.576 33.7626 214.424 34.4026C213.315 35.0426 212.397 35.8106 211.672 36.7066C210.989 37.6026 210.477 38.5413 210.136 39.5226C209.837 40.4613 209.688 41.2506 209.688 41.8906V62.4986H204.248V29.4106ZM261.888 52.0666C261.931 53.2613 262.208 54.2853 262.72 55.1386C263.232 55.9493 263.894 56.6106 264.704 57.1226C265.558 57.5919 266.496 57.9333 267.52 58.1466C268.587 58.3599 269.675 58.4666 270.784 58.4666C271.638 58.4666 272.534 58.4026 273.472 58.2746C274.411 58.1466 275.264 57.9119 276.032 57.5706C276.843 57.2293 277.504 56.7386 278.016 56.0986C278.528 55.4159 278.784 54.5626 278.784 53.5386C278.784 52.1306 278.251 51.0639 277.184 50.3386C276.118 49.6133 274.774 49.0373 273.152 48.6106C271.574 48.1413 269.846 47.7359 267.968 47.3946C266.091 47.0106 264.342 46.4986 262.72 45.8586C261.142 45.1759 259.819 44.2373 258.752 43.0426C257.686 41.8479 257.152 40.1839 257.152 38.0506C257.152 36.3866 257.515 34.9573 258.24 33.7626C259.008 32.5679 259.968 31.6079 261.12 30.8826C262.315 30.1146 263.638 29.5599 265.088 29.2186C266.582 28.8346 268.054 28.6426 269.504 28.6426C271.382 28.6426 273.11 28.8133 274.688 29.1546C276.267 29.4533 277.654 30.0079 278.848 30.8186C280.086 31.5866 281.067 32.6533 281.792 34.0186C282.518 35.3413 282.944 37.0053 283.072 39.0106H277.632C277.547 37.9439 277.27 37.0693 276.8 36.3866C276.331 35.6613 275.734 35.0853 275.008 34.6586C274.283 34.2319 273.472 33.9333 272.576 33.7626C271.723 33.5493 270.848 33.4426 269.952 33.4426C269.142 33.4426 268.31 33.5066 267.456 33.6346C266.646 33.7626 265.899 33.9973 265.216 34.3386C264.534 34.6373 263.979 35.0639 263.552 35.6186C263.126 36.1306 262.912 36.8133 262.912 37.6666C262.912 38.6053 263.232 39.3946 263.872 40.0346C264.555 40.6319 265.408 41.1439 266.432 41.5706C267.456 41.9546 268.608 42.2959 269.888 42.5946C271.168 42.8506 272.448 43.1279 273.728 43.4266C275.094 43.7253 276.416 44.0879 277.696 44.5146C279.019 44.9413 280.171 45.5173 281.152 46.2426C282.176 46.9253 282.987 47.7999 283.584 48.8666C284.224 49.9333 284.544 51.2559 284.544 52.8346C284.544 54.8399 284.118 56.5039 283.264 57.8266C282.454 59.1493 281.366 60.2159 280 61.0266C278.678 61.8373 277.163 62.3919 275.456 62.6906C273.792 63.0319 272.128 63.2026 270.464 63.2026C268.63 63.2026 266.88 63.0106 265.216 62.6266C263.552 62.2426 262.08 61.6239 260.8 60.7706C259.52 59.8746 258.496 58.7226 257.728 57.3146C256.96 55.8639 256.534 54.1146 256.448 52.0666H261.888Z" fill="#1954E9"/>
<path d="M7.82598 52.0666C7.86864 53.2613 8.14598 54.2853 8.65798 55.1386C9.16998 55.9493 9.83131 56.6106 10.642 57.1226C11.4953 57.5919 12.434 57.9333 13.458 58.1466C14.5246 58.3599 15.6126 58.4666 16.722 58.4666C17.5753 58.4666 18.4713 58.4026 19.41 58.2746C20.3486 58.1466 21.202 57.9119 21.97 57.5706C22.7806 57.2293 23.442 56.7386 23.954 56.0986C24.466 55.4159 24.722 54.5626 24.722 53.5386C24.722 52.1306 24.1886 51.0639 23.122 50.3386C22.0553 49.6133 20.7113 49.0373 19.09 48.6106C17.5113 48.1413 15.7833 47.7359 13.906 47.3946C12.0286 47.0106 10.2793 46.4986 8.65798 45.8586C7.07931 45.1759 5.75664 44.2373 4.68998 43.0426C3.62331 41.8479 3.08998 40.1839 3.08998 38.0506C3.08998 36.3866 3.45264 34.9573 4.17798 33.7626C4.94598 32.5679 5.90598 31.6079 7.05798 30.8826C8.25264 30.1146 9.57531 29.5599 11.026 29.2186C12.5193 28.8346 13.9913 28.6426 15.442 28.6426C17.3193 28.6426 19.0473 28.8133 20.626 29.1546C22.2046 29.4533 23.5913 30.0079 24.786 30.8186C26.0233 31.5866 27.0046 32.6533 27.73 34.0186C28.4553 35.3413 28.882 37.0053 29.01 39.0106H23.57C23.4846 37.9439 23.2073 37.0693 22.738 36.3866C22.2686 35.6613 21.6713 35.0853 20.946 34.6586C20.2206 34.2319 19.41 33.9333 18.514 33.7626C17.6606 33.5493 16.786 33.4426 15.89 33.4426C15.0793 33.4426 14.2473 33.5066 13.394 33.6346C12.5833 33.7626 11.8366 33.9973 11.154 34.3386C10.4713 34.6373 9.91664 35.0639 9.48998 35.6186C9.06331 36.1306 8.84998 36.8133 8.84998 37.6666C8.84998 38.6053 9.16998 39.3946 9.80998 40.0346C10.4926 40.6319 11.346 41.1439 12.37 41.5706C13.394 41.9546 14.546 42.2959 15.826 42.5946C17.106 42.8506 18.386 43.1279 19.666 43.4266C21.0313 43.7253 22.354 44.0879 23.634 44.5146C24.9566 44.9413 26.1086 45.5173 27.09 46.2426C28.114 46.9253 28.9246 47.7999 29.522 48.8666C30.162 49.9333 30.482 51.2559 30.482 52.8346C30.482 54.8399 30.0553 56.5039 29.202 57.8266C28.3913 59.1493 27.3033 60.2159 25.938 61.0266C24.6153 61.8373 23.1006 62.3919 21.394 62.6906C19.73 63.0319 18.066 63.2026 16.402 63.2026C14.5673 63.2026 12.818 63.0106 11.154 62.6266C9.48998 62.2426 8.01798 61.6239 6.73798 60.7706C5.45798 59.8746 4.43398 58.7226 3.66598 57.3146C2.89798 55.8639 2.47131 54.1146 2.38598 52.0666H7.82598ZM36.248 16.8026H41.688V34.2746H41.816C42.2426 33.2506 42.84 32.3973 43.608 31.7146C44.376 30.9893 45.2293 30.4133 46.168 29.9866C47.1493 29.5173 48.152 29.1759 49.176 28.9626C50.2426 28.7493 51.2666 28.6426 52.248 28.6426C54.424 28.6426 56.2373 28.9413 57.688 29.5386C59.1386 30.1359 60.312 30.9679 61.208 32.0346C62.104 33.1013 62.7226 34.3813 63.064 35.8746C63.448 37.3253 63.64 38.9466 63.64 40.7386V62.4986H58.2V40.0986C58.2 38.0506 57.6026 36.4293 56.408 35.2346C55.2133 34.0399 53.5706 33.4426 51.48 33.4426C49.816 33.4426 48.3653 33.6986 47.128 34.2106C45.9333 34.7226 44.9306 35.4479 44.12 36.3866C43.3093 37.3253 42.6906 38.4346 42.264 39.7146C41.88 40.9519 41.688 42.3173 41.688 43.8106V62.4986H36.248V16.8026ZM75.5285 45.9866C75.5285 47.9919 75.7845 49.7839 76.2965 51.3626C76.8511 52.8986 77.5978 54.1999 78.5365 55.2666C79.4751 56.2906 80.5631 57.0799 81.8005 57.6346C83.0805 58.1893 84.4245 58.4666 85.8325 58.4666C87.2405 58.4666 88.5631 58.1893 89.8005 57.6346C91.0805 57.0799 92.1898 56.2906 93.1285 55.2666C94.0671 54.1999 94.7925 52.8986 95.3045 51.3626C95.8591 49.7839 96.1365 47.9919 96.1365 45.9866C96.1365 43.9813 95.8591 42.2106 95.3045 40.6746C94.7925 39.0959 94.0671 37.7733 93.1285 36.7066C92.1898 35.6399 91.0805 34.8293 89.8005 34.2746C88.5631 33.7199 87.2405 33.4426 85.8325 33.4426C84.4245 33.4426 83.0805 33.7199 81.8005 34.2746C80.5631 34.8293 79.4751 35.6399 78.5365 36.7066C77.5978 37.7733 76.8511 39.0959 76.2965 40.6746C75.7845 42.2106 75.5285 43.9813 75.5285 45.9866ZM69.7685 45.9866C69.7685 43.5546 70.1098 41.2933 70.7925 39.2026C71.4751 37.0693 72.4991 35.2346 73.8645 33.6986C75.2298 32.1199 76.9151 30.8826 78.9205 29.9866C80.9258 29.0906 83.2298 28.6426 85.8325 28.6426C88.4778 28.6426 90.7818 29.0906 92.7445 29.9866C94.7498 30.8826 96.4351 32.1199 97.8005 33.6986C99.1658 35.2346 100.19 37.0693 100.872 39.2026C101.555 41.2933 101.896 43.5546 101.896 45.9866C101.896 48.4186 101.555 50.6799 100.872 52.7706C100.19 54.8613 99.1658 56.6959 97.8005 58.2746C96.4351 59.8106 94.7498 61.0266 92.7445 61.9226C90.7818 62.7759 88.4778 63.2026 85.8325 63.2026C83.2298 63.2026 80.9258 62.7759 78.9205 61.9226C76.9151 61.0266 75.2298 59.8106 73.8645 58.2746C72.4991 56.6959 71.4751 54.8613 70.7925 52.7706C70.1098 50.6799 69.7685 48.4186 69.7685 45.9866ZM107.868 29.4106H112.988V36.3866H113.116C114.439 33.6986 116.06 31.7146 117.98 30.4346C119.9 29.1546 122.332 28.5573 125.276 28.6426V34.4026C123.1 34.4026 121.244 34.7013 119.708 35.2986C118.172 35.8959 116.935 36.7706 115.996 37.9226C115.058 39.0746 114.375 40.4826 113.948 42.1466C113.522 43.7679 113.308 45.6453 113.308 47.7786V62.4986H107.868V29.4106ZM136.675 29.4106H143.267V34.2106H136.675V54.7546C136.675 55.3946 136.718 55.9066 136.803 56.2906C136.931 56.6746 137.144 56.9733 137.443 57.1866C137.742 57.3999 138.147 57.5493 138.659 57.6346C139.214 57.6773 139.918 57.6986 140.771 57.6986H143.267V62.4986H139.107C137.699 62.4986 136.483 62.4133 135.459 62.2426C134.478 62.0293 133.667 61.6666 133.027 61.1546C132.43 60.6426 131.982 59.9173 131.683 58.9786C131.384 58.0399 131.235 56.8026 131.235 55.2666V34.2106H125.603V29.4106H131.235V19.4906H136.675V29.4106ZM172.036 42.7866C171.951 41.5066 171.652 40.2906 171.14 39.1386C170.671 37.9866 170.01 37.0053 169.156 36.1946C168.346 35.3413 167.364 34.6799 166.212 34.2106C165.103 33.6986 163.866 33.4426 162.5 33.4426C161.092 33.4426 159.812 33.6986 158.66 34.2106C157.551 34.6799 156.591 35.3413 155.78 36.1946C154.97 37.0479 154.33 38.0506 153.86 39.2026C153.391 40.3119 153.114 41.5066 153.028 42.7866H172.036ZM177.284 52.0026C176.559 55.7146 174.959 58.5093 172.484 60.3866C170.01 62.2639 166.895 63.2026 163.14 63.2026C160.495 63.2026 158.191 62.7759 156.228 61.9226C154.308 61.0693 152.687 59.8746 151.364 58.3386C150.042 56.8026 149.039 54.9679 148.356 52.8346C147.716 50.7013 147.354 48.3759 147.268 45.8586C147.268 43.3413 147.652 41.0373 148.42 38.9466C149.188 36.8559 150.255 35.0426 151.62 33.5066C153.028 31.9706 154.671 30.7759 156.548 29.9226C158.468 29.0693 160.559 28.6426 162.82 28.6426C165.764 28.6426 168.196 29.2613 170.116 30.4986C172.079 31.6933 173.636 33.2293 174.788 35.1066C175.983 36.9839 176.794 39.0319 177.22 41.2506C177.69 43.4693 177.882 45.5813 177.796 47.5866H153.028C152.986 49.0373 153.156 50.4239 153.54 51.7466C153.924 53.0266 154.543 54.1786 155.396 55.2026C156.25 56.1839 157.338 56.9733 158.66 57.5706C159.983 58.1679 161.54 58.4666 163.332 58.4666C165.636 58.4666 167.514 57.9333 168.964 56.8666C170.458 55.7999 171.439 54.1786 171.908 52.0026H177.284ZM182.993 29.4106H188.113V36.3866H188.241C189.564 33.6986 191.185 31.7146 193.105 30.4346C195.025 29.1546 197.457 28.5573 200.401 28.6426V34.4026C198.225 34.4026 196.369 34.7013 194.833 35.2986C193.297 35.8959 192.06 36.7706 191.121 37.9226C190.183 39.0746 189.5 40.4826 189.073 42.1466C188.647 43.7679 188.433 45.6453 188.433 47.7786V62.4986H182.993V29.4106ZM204.248 29.4106H209.368V34.2746H209.496C211.971 30.5199 215.533 28.6426 220.184 28.6426C222.232 28.6426 224.088 29.0693 225.752 29.9226C227.416 30.7759 228.589 32.2266 229.272 34.2746C230.381 32.4826 231.832 31.0959 233.624 30.1146C235.459 29.1333 237.464 28.6426 239.64 28.6426C241.304 28.6426 242.797 28.8346 244.12 29.2186C245.485 29.5599 246.637 30.1146 247.576 30.8826C248.557 31.6506 249.304 32.6533 249.816 33.8906C250.371 35.0853 250.648 36.5359 250.648 38.2426V62.4986H245.208V40.8026C245.208 39.7786 245.123 38.8186 244.952 37.9226C244.781 37.0266 244.461 36.2586 243.992 35.6186C243.523 34.9359 242.861 34.4026 242.008 34.0186C241.197 33.6346 240.131 33.4426 238.808 33.4426C236.12 33.4426 234.008 34.2106 232.472 35.7466C230.936 37.2826 230.168 39.3306 230.168 41.8906V62.4986H224.728V40.8026C224.728 39.7359 224.621 38.7546 224.408 37.8586C224.237 36.9626 223.917 36.1946 223.448 35.5546C222.979 34.8719 222.339 34.3599 221.528 34.0186C220.76 33.6346 219.757 33.4426 218.52 33.4426C216.941 33.4426 215.576 33.7626 214.424 34.4026C213.315 35.0426 212.397 35.8106 211.672 36.7066C210.989 37.6026 210.477 38.5413 210.136 39.5226C209.837 40.4613 209.688 41.2506 209.688 41.8906V62.4986H204.248V29.4106ZM261.888 52.0666C261.931 53.2613 262.208 54.2853 262.72 55.1386C263.232 55.9493 263.894 56.6106 264.704 57.1226C265.558 57.5919 266.496 57.9333 267.52 58.1466C268.587 58.3599 269.675 58.4666 270.784 58.4666C271.638 58.4666 272.534 58.4026 273.472 58.2746C274.411 58.1466 275.264 57.9119 276.032 57.5706C276.843 57.2293 277.504 56.7386 278.016 56.0986C278.528 55.4159 278.784 54.5626 278.784 53.5386C278.784 52.1306 278.251 51.0639 277.184 50.3386C276.118 49.6133 274.774 49.0373 273.152 48.6106C271.574 48.1413 269.846 47.7359 267.968 47.3946C266.091 47.0106 264.342 46.4986 262.72 45.8586C261.142 45.1759 259.819 44.2373 258.752 43.0426C257.686 41.8479 257.152 40.1839 257.152 38.0506C257.152 36.3866 257.515 34.9573 258.24 33.7626C259.008 32.5679 259.968 31.6079 261.12 30.8826C262.315 30.1146 263.638 29.5599 265.088 29.2186C266.582 28.8346 268.054 28.6426 269.504 28.6426C271.382 28.6426 273.11 28.8133 274.688 29.1546C276.267 29.4533 277.654 30.0079 278.848 30.8186C280.086 31.5866 281.067 32.6533 281.792 34.0186C282.518 35.3413 282.944 37.0053 283.072 39.0106H277.632C277.547 37.9439 277.27 37.0693 276.8 36.3866C276.331 35.6613 275.734 35.0853 275.008 34.6586C274.283 34.2319 273.472 33.9333 272.576 33.7626C271.723 33.5493 270.848 33.4426 269.952 33.4426C269.142 33.4426 268.31 33.5066 267.456 33.6346C266.646 33.7626 265.899 33.9973 265.216 34.3386C264.534 34.6373 263.979 35.0639 263.552 35.6186C263.126 36.1306 262.912 36.8133 262.912 37.6666C262.912 38.6053 263.232 39.3946 263.872 40.0346C264.555 40.6319 265.408 41.1439 266.432 41.5706C267.456 41.9546 268.608 42.2959 269.888 42.5946C271.168 42.8506 272.448 43.1279 273.728 43.4266C275.094 43.7253 276.416 44.0879 277.696 44.5146C279.019 44.9413 280.171 45.5173 281.152 46.2426C282.176 46.9253 282.987 47.7999 283.584 48.8666C284.224 49.9333 284.544 51.2559 284.544 52.8346C284.544 54.8399 284.118 56.5039 283.264 57.8266C282.454 59.1493 281.366 60.2159 280 61.0266C278.678 61.8373 277.163 62.3919 275.456 62.6906C273.792 63.0319 272.128 63.2026 270.464 63.2026C268.63 63.2026 266.88 63.0106 265.216 62.6266C263.552 62.2426 262.08 61.6239 260.8 60.7706C259.52 59.8746 258.496 58.7226 257.728 57.3146C256.96 55.8639 256.534 54.1146 256.448 52.0666H261.888Z" fill="#1954E9"/>
<path d="M2.16412 68.8582L142.729 68.3117C92.7273 87.2584 43.1161 49.0883 2.16412 68.8582Z" fill="#1954E9"/>
</svg>
